<?xml version="1.0" encoding="UTF-8"?>
<!DOCTYPE svg PUBLIC "-//W3C//DTD SVG 1.1//EN" "http://www.w3.org/Graphics/SVG/1.1/DTD/svg11.dtd">
<!-- Creator: CorelDRAW -->
<svg xmlns="http://www.w3.org/2000/svg" xml:space="preserve" width="8.5in" height="11in" style="shape-rendering:geometricPrecision; text-rendering:geometricPrecision; image-rendering:optimizeQuality; fill-rule:evenodd; clip-rule:evenodd"
viewBox="0 0 8.5 11"
 xmlns:xlink="http://www.w3.org/1999/xlink">
 <defs>
  <style type="text/css">
   <![CDATA[
    .str0 {stroke:#1F1A17;stroke-width:0.00694488}
    .fil0 {fill:black}
    .fil1 {fill:black;fill-rule:nonzero}
   ]]>
  </style>
 </defs>
 <g id="Layer_x0020_1">
  <metadata id="CorelCorpID_0Corel-Layer"/>
  <path class="fil0 str0" d="M4.36182 2.71585c0.291803,0 0.528449,0.236646 0.528449,0.528449 0,0.291807 -0.236646,0.528453 -0.528449,0.528453 -0.291807,0 -0.528449,-0.236646 -0.528449,-0.528453 0,-0.291803 0.236642,-0.528449 0.528449,-0.528449zm-0.328669 0.589768c0.00170472,0.0097126 0.00398031,0.0195276 0.00624016,0.0283504 0.0090748,0.035378 0.0231417,0.0700354 0.0421732,0.101232 0.0625433,0.10252 0.163406,0.144543 0.281134,0.14415 0.119161,-0.000397638 0.219555,-0.0447362 0.281252,-0.149126 0.0188465,-0.0318858 0.032689,-0.0672008 0.0415236,-0.10315 0.00214173,-0.00869685 0.00431496,-0.0184213 0.00593307,-0.0280354 -0.0157047,-0.00101575 -0.0303898,-0.00857087 -0.0303898,-0.0266496 0,-0.013 0.00740157,-0.0241929 0.018626,-0.0304685 0.016878,-0.00944094 0.0400748,-0.00723622 0.058248,-0.00359843 0.0138071,0.00275984 0.030685,0.00715354 0.0422953,0.0154606 0.00994094,0.00711417 0.0162598,0.0176929 0.0143189,0.0302087 -0.000933071,0.00601969 -0.00367717,0.0114606 -0.00738976,0.0162323 -0.00705512,0.00907087 -0.0178386,0.0116063 -0.0286811,0.0107126 -0.00226772,0.0123307 -0.00534646,0.0248504 -0.0084252,0.0361654 -0.0114882,0.0422087 -0.0288189,0.0834488 -0.051811,0.120689 -0.0755433,0.122354 -0.195681,0.177098 -0.337618,0.177098 -0.141142,0 -0.260972,-0.0540079 -0.334992,-0.176705 -0.022437,-0.0371929 -0.0391102,-0.0783504 -0.0499134,-0.120398 -0.00270472,-0.0105315 -0.00538976,-0.0221181 -0.00742126,-0.0336102 -0.0145315,0.00298031 -0.0315669,-0.00467323 -0.0381693,-0.017874 -0.00648819,-0.0129724 0.000224409,-0.0280433 0.0101811,-0.0370591 0.0144449,-0.0130827 0.0365433,-0.0171181 0.0553543,-0.0179724 0.0207126,-0.000944882 0.056437,-0.00193701 0.0642126,0.0230472 0.00205906,0.00661811 0.00145669,0.0132008 -0.00019685,0.0198071 -0.00330315,0.0132165 -0.0142913,0.0194173 -0.0264843,0.0214921zm0.176736 -0.433189c0.0516339,0 0.0935079,0.0740118 0.0935079,0.165276 0,0.0912638 -0.041874,0.165276 -0.0935079,0.165276 -0.0516378,0 -0.0935157,-0.0740118 -0.0935157,-0.165276 0,-0.0912638 0.041878,-0.165276 0.0935157,-0.165276zm0.297602 0c0.0516339,0 0.0935079,0.0740118 0.0935079,0.165276 0,0.0912638 -0.041874,0.165276 -0.0935079,0.165276 -0.0516378,0 -0.0935157,-0.0740118 -0.0935157,-0.165276 0,-0.0912638 0.041878,-0.165276 0.0935157,-0.165276z"/>
  <path class="fil0 str0" d="M4.85734 3.51057c0.0224291,0.0128425 0.0455906,0.0263819 0.0692717,0.0405591 0.193008,0.115567 0.364563,0.180051 0.364563,0.180051 0,0 0.0913819,0.0340197 0.0571693,0.106047 -0.0342087,0.0720276 -0.0647677,0.075626 -0.135283,0.0276614 -0.0705157,-0.0479646 -0.313283,-0.175185 -0.345559,-0.191106 -0.0143819,-0.00709449 -0.0515945,-0.024378 -0.0951378,-0.0451024 0.0331496,-0.0353937 0.0617953,-0.075063 0.0849764,-0.11811zm-1.05342 -0.338209c-0.100713,-0.0728543 -0.187276,-0.135661 -0.187276,-0.135661 0,0 -0.105681,-0.065752 -0.187315,-0.181449 -0.0816299,-0.115693 -0.0647559,-0.260657 -0.0647559,-0.260657l0.524732 0.344559c-0.0347323,0.0536654 -0.0605866,0.11361 -0.0754488,0.17776l-0.289012 -0.200256c0,0 -0.00874803,-0.0152205 0.0162874,0.0202638 0.0250354,0.0354843 0.0574488,0.0556496 0.0574488,0.0556496 0,0 0.0985748,0.0708622 0.209831,0.150787 -0.00174016,0.00958661 -0.00324803,0.0192559 -0.00449213,0.0290039zm0.0613346 0.336236c-0.0235,0.0134291 -0.0478228,0.027626 -0.0727205,0.0425315 -0.193008,0.115563 -0.364563,0.180051 -0.364563,0.180051 0,0 -0.0913819,0.0340157 -0.0571693,0.106047 0.0342087,0.0720276 0.0647677,0.075626 0.135283,0.0276614 0.0705157,-0.0479646 0.313283,-0.175185 0.345559,-0.191106 0.0147244,-0.00726378 0.053374,-0.0252008 0.098248,-0.0465827 -0.033063,-0.035563 -0.0615906,-0.0753976 -0.0846378,-0.118602zm1.05405 -0.339185c0.0989567,-0.0715906 0.183197,-0.132713 0.183197,-0.132713 0,0 0.105681,-0.065752 0.187315,-0.181449 0.0816299,-0.115693 0.0647598,-0.260657 0.0647598,-0.260657l-0.521598 0.3425c0.0349213,0.0534488 0.0610039,0.113193 0.0761535,0.177161l0.285169 -0.197598c0,0 0.00875197,-0.0152205 -0.0162874,0.0202638 -0.0250354,0.0354843 -0.0574488,0.0556496 -0.0574488,0.0556496 0,0 -0.096252,0.0691929 -0.205882,0.147953 0.00178346,0.00954724 0.00332677,0.0191772 0.00462205,0.0288898z"/>
  <path class="fil1" d="M3.13917 3.5438c-0.00279528,0 -0.0052874,-0.00109843 -0.00748031,-0.00329134 -0.00219291,-0.00219291 -0.00329134,-0.00468504 -0.00329134,-0.00747638l0 -0.137614c0,-0.0131614 0.00388976,-0.0294173 0.0116654,-0.0487638 0.00777953,-0.0193425 0.0196457,-0.0429764 0.0356024,-0.0708976 0.00558268,-0.00997244 0.0231339,-0.0428819 0.0526496,-0.0987244l0.0221378 -0.0418819c0.00159843,-0.00318898 0.00359055,-0.00578346 0.00598425,-0.00777559 0.0023937,-0.00199606 0.0061811,-0.00299213 0.0113701,-0.00299213l0.057437 0c0.0071811,0 0.0107677,0.00199213 0.0107677,0.00598031 0,0.00159843 -0.000598425,0.00359055 -0.00179134,0.00598425l-0.125051 0.228555c-0.00398819,0.0071811 -0.0061811,0.0157559 -0.00657874,0.0257283l0 0.0412835 0 0.101118c0,0.00279134 -0.001,0.00528346 -0.00299213,0.00747638 -0.00199606,0.00219291 -0.00458661,0.00329134 -0.00777953,0.00329134l-0.0526496 0zm0.303941 0c-0.00318898,0 -0.00588189,-0.000996063 -0.0080748,-0.00299213 -0.00219291,-0.00199213 -0.00329134,-0.00458661 -0.00329134,-0.00777559l0 -0.208815c0,-0.00318898 0.00109843,-0.00588189 0.00329134,-0.0080748 0.00219291,-0.00219291 0.00488583,-0.00329134 0.0080748,-0.00329134l0.123854 0c0.0159528,0 0.0294173,-0.00538583 0.0403858,-0.0161535 0.0109685,-0.0107717 0.0164528,-0.0237362 0.0164528,-0.0388898 0,-0.0155591 -0.00548425,-0.0287205 -0.0164528,-0.0394921 -0.0109685,-0.0107677 -0.0244331,-0.0161535 -0.0403858,-0.0161535l-0.0502598 0c-0.00438583,0 -0.00807874,0.00149606 -0.0110669,0.00448819 -0.00299213,0.00299213 -0.00448819,0.00648031 -0.00448819,0.0104685l0 0.0149606c0,0.00398819 -0.00139764,0.00747638 -0.00418898,0.0104685 -0.00279134,0.00299213 -0.00638189,0.00448819 -0.0107717,0.00448819l-0.0394882 0c-0.00398819,0 -0.00747638,-0.00149606 -0.0104685,-0.00448819 -0.00299213,-0.00299213 -0.00448819,-0.00648031 -0.00448819,-0.0104685l0 -0.0963307c0,-0.00318898 0.00109843,-0.00588189 0.00329134,-0.00807874 0.00219291,-0.00219291 0.00488583,-0.0032874 0.0080748,-0.0032874l0.123854 0c0.0247283,0 0.0474646,0.00598031 0.0682047,0.0179488 0.0207441,0.0119646 0.0371969,0.028122 0.0493622,0.0484646 0.0121654,0.0203425 0.018248,0.0426772 0.018248,0.0670118 0,0.0207402 -0.00468504,0.0402835 -0.0140591,0.0586339 -0.00937402,0.0183465 -0.0222362,0.0337047 -0.0385906,0.0460709 -0.0023937,0.00159449 -0.00359055,0.00358661 -0.00359055,0.00598031 0,0.0023937 0.000200787,0.00438976 0.000598425,0.00598425l0.0694055 0.154965c0.00159449,0.00279134 0.0023937,0.00538189 0.0023937,0.00777559 0,0.00438976 -0.00279528,0.00658268 -0.00837795,0.00658268l-0.049063 0c-0.00438583,0 -0.00767717,-0.000397638 -0.00987008,-0.00119685 -0.00219685,-0.000795276 -0.00409055,-0.00279134 -0.00568504,-0.00598425l-0.0622244 -0.140004c-0.00119685,-0.0023937 -0.00279134,-0.00398819 -0.0047874,-0.0047874 -0.00199213,-0.000795276 -0.00598425,-0.00119685 -0.0119646,-0.00119685l-0.0508583 0c-0.0047874,0 -0.00847638,0.00069685 -0.0110669,0.00209449 -0.00259449,0.00139764 -0.00388976,0.0042874 -0.00388976,0.00867717l0 0.13163c0,0.00318898 -0.00109843,0.00578346 -0.00329134,0.00777559 -0.00219291,0.00199606 -0.00488583,0.00299213 -0.00807874,0.00299213l-0.0466693 0zm1.64878 -0.00119685c-0.00359055,0 -0.0066811,-0.00119685 -0.00927559,-0.00359055 -0.00259055,-0.0023937 -0.00388583,-0.00538583 -0.00388583,-0.00897244l0 -0.0520551c0,-0.00398819 0.00129528,-0.0071811 0.00388583,-0.00957087 0.00259449,-0.0023937 0.00568504,-0.00359055 0.00927559,-0.00359055l0.0484646 0c0.0239331,0 0.0458701,-0.00588583 0.065815,-0.0176496 0.0199409,-0.0117677 0.0357992,-0.027622 0.047563,-0.0475669 0.0117677,-0.0199449 0.0176535,-0.0418819 0.0176535,-0.065815 0,-0.0239331 -0.00588583,-0.0458701 -0.0176535,-0.065815 -0.0117638,-0.0199449 -0.027622,-0.0357992 -0.047563,-0.0475669 -0.0199449,-0.0117677 -0.0418819,-0.0176496 -0.065815,-0.0176496l-0.0484646 0c-0.00199606,0 -0.00368898,0.00069685 -0.00508661,0.00209449 -0.0013937,0.00139764 -0.00209449,0.00309055 -0.00209449,0.00508661l0 0.0364961c0,0.00359055 -0.00129528,0.00658268 -0.00388976,0.00897638 -0.00259055,0.0023937 -0.0056811,0.00359055 -0.00927165,0.00359055l-0.0520551 0c-0.00318898,0 -0.00608268,-0.00129921 -0.00867323,-0.00388976 -0.00259449,-0.00259449 -0.00388976,-0.00548819 -0.00388976,-0.00867717l0 -0.108295c0,-0.00359055 0.00129528,-0.0066811 0.00388976,-0.00927559 0.00259055,-0.00259055 0.00548425,-0.00388583 0.00867323,-0.00388583l0.120862 0c0.0378937,0 0.0727953,0.00937008 0.104705,0.0281181 0.0319094,0.018748 0.0572402,0.0440787 0.0759843,0.0759882 0.018748,0.0319094 0.028122,0.066811 0.028122,0.104705 0,0.0378937 -0.00937402,0.0727953 -0.028122,0.104705 -0.0187441,0.0319094 -0.0440748,0.0572402 -0.0759843,0.0759843 -0.0319094,0.018748 -0.066811,0.028122 -0.104705,0.028122l-0.0484646 0zm0.370957 0.00119685c-0.00319291,0 -0.00588583,-0.000996063 -0.00807874,-0.00299213 -0.00219291,-0.00199213 -0.00329134,-0.00458661 -0.00329134,-0.00777559l0 -0.208815c0,-0.00318898 0.00109843,-0.00588189 0.00329134,-0.0080748 0.00219291,-0.00219291 0.00488583,-0.00329134 0.00807874,-0.00329134l0.12385 0c0.0159528,0 0.0294173,-0.00538583 0.0403858,-0.0161535 0.0109685,-0.0107717 0.0164528,-0.0237362 0.0164528,-0.0388898 0,-0.0155591 -0.00548425,-0.0287205 -0.0164528,-0.0394921 -0.0109685,-0.0107677 -0.0244331,-0.0161535 -0.0403858,-0.0161535l-0.0502598 0c-0.00438583,0 -0.0080748,0.00149606 -0.0110669,0.00448819 -0.00299213,0.00299213 -0.00448819,0.00648031 -0.00448819,0.0104685l0 0.0149606c0,0.00398819 -0.00139764,0.00747638 -0.00418898,0.0104685 -0.00279134,0.00299213 -0.00638189,0.00448819 -0.0107677,0.00448819l-0.0394921 0c-0.00398819,0 -0.00747638,-0.00149606 -0.0104685,-0.00448819 -0.00299213,-0.00299213 -0.00448819,-0.00648031 -0.00448819,-0.0104685l0 -0.0963307c0,-0.00318898 0.00109843,-0.00588189 0.00329134,-0.00807874 0.00219291,-0.00219291 0.00488583,-0.0032874 0.00807874,-0.0032874l0.12385 0c0.0247323,0 0.0474685,0.00598031 0.0682087,0.0179488 0.0207402,0.0119646 0.0371929,0.028122 0.0493583,0.0484646 0.0121693,0.0203425 0.018252,0.0426772 0.018252,0.0670118 0,0.0207402 -0.00468898,0.0402835 -0.014063,0.0586339 -0.00937402,0.0183465 -0.0222362,0.0337047 -0.0385906,0.0460709 -0.0023937,0.00159449 -0.00359055,0.00358661 -0.00359055,0.00598031 0,0.0023937 0.000200787,0.00438976 0.000598425,0.00598425l0.0694055 0.154965c0.00159449,0.00279134 0.0023937,0.00538189 0.0023937,0.00777559 0,0.00438976 -0.00279134,0.00658268 -0.00837795,0.00658268l-0.0490591 0c-0.00438976,0 -0.0076811,-0.000397638 -0.00987402,-0.00119685 -0.00219291,-0.000795276 -0.00409055,-0.00279134 -0.00568504,-0.00598425l-0.0622244 -0.140004c-0.00119685,-0.0023937 -0.00279134,-0.00398819 -0.0047874,-0.0047874 -0.00199213,-0.000795276 -0.00598031,-0.00119685 -0.0119646,-0.00119685l-0.0508583 0c-0.0047874,0 -0.00847638,0.00069685 -0.0110669,0.00209449 -0.00259449,0.00139764 -0.00388976,0.0042874 -0.00388976,0.00867717l0 0.13163c0,0.00318898 -0.00109843,0.00578346 -0.00329134,0.00777559 -0.00219291,0.00199606 -0.00488583,0.00299213 -0.00807874,0.00299213l-0.0466654 0z"/>
  <path class="fil1" d="M2.99683 3.13634c-0.000795276,-0.00159449 -0.00119685,-0.00318898 -0.00119685,-0.0047874 0,-0.00478346 0.00299213,-0.00717717 0.00897638,-0.00717717l0.0568386 0c0.00678346,0 0.0110709,0.000598425 0.0128661,0.00179528 0.00179528,0.00119685 0.00348819,0.00318898 0.00508661,0.00598031l0.00897244 0.0167559c0.00279134,0.00558268 0.0153583,0.029315 0.0376929,0.0711969 0.0023937,0.00558661 0.00359055,0.0101732 0.00359055,0.0137638 0,0.00438583 -0.00119685,0.00897244 -0.00359055,0.0137598l-0.0251299 0.0460709c-0.00199213,0.00438583 -0.00498425,0.00658268 -0.00897244,0.00658268 -0.00359055,0 -0.00638189,-0.00199606 -0.00837795,-0.00598425l-0.0867559 -0.157957z"/>
 </g>
</svg>
